<svg id="visual" viewBox="0 0 900 450" width="900" height="450" xmlns="http://www.w3.org/2000/svg" xmlns:xlink="http://www.w3.org/1999/xlink" version="1.1"><path d="M0 221L30 211.7C60 202.3 120 183.7 180 186.2C240 188.7 300 212.3 360 214.8C420 217.3 480 198.7 540 198.7C600 198.7 660 217.3 720 229.5C780 241.7 840 247.3 870 250.2L900 253L900 451L870 451C840 451 780 451 720 451C660 451 600 451 540 451C480 451 420 451 360 451C300 451 240 451 180 451C120 451 60 451 30 451L0 451Z" fill="#ffffff" stroke-linecap="round" stroke-linejoin="miter"></path></svg>